<?xml version="1.0" encoding="utf-8"?>
<!-- Generator: Adobe Illustrator 16.0.4, SVG Export Plug-In . SVG Version: 6.00 Build 0)  -->
<!DOCTYPE svg PUBLIC "-//W3C//DTD SVG 1.1//EN" "http://www.w3.org/Graphics/SVG/1.1/DTD/svg11.dtd">
<svg version="1.1" id="Layer_1" xmlns="http://www.w3.org/2000/svg" xmlns:xlink="http://www.w3.org/1999/xlink" x="0px" y="0px"
	 width="291.077px" height="215.385px" viewBox="0 0 291.077 215.385" enable-background="new 0 0 291.077 215.385"
	 xml:space="preserve">
<path fill="none" stroke="#D2232A" stroke-width="2" stroke-linejoin="round" stroke-miterlimit="10" d="M157.533,66.468h-24.643
	H84.307c0,0,6.61,1.608,6.61,10.36c0,8.756,0,91.095,0,93.229c0,2.153,0.268,15.457,22.062,25.808
	c24.106,11.971,30.067,11.46,32.233,17.952c2.413-6.341,8.125-5.981,32.239-17.952c21.785-10.352,22.06-23.655,22.06-25.808
	c0-2.134,0-84.472,0-93.229c0-8.752,6.612-10.36,6.612-10.36H157.533z"/>
<path fill="none" stroke="#D2232A" stroke-width="2" stroke-miterlimit="10" d="M90.917,147.912c0,0,28.404-9.64,54.295-9.64
	c25.888,0,54.298,9.64,54.298,9.64"/>
<path fill="none" stroke="#D2232A" stroke-width="2" stroke-miterlimit="10" d="M90.917,140.144c0,0,28.404-9.642,54.295-9.642
	c25.888,0,54.298,9.642,54.298,9.642"/>
<path fill="none" stroke="#D2232A" stroke-width="2" stroke-miterlimit="10" d="M90.917,122.191c0,0,6.313-2.433,10.364-2.672
	c0,2.32-0.008,4.964-0.008,7.931c10.593-2.827,27.756-6.599,43.94-6.599c15.819,0,32.552,3.603,43.204,6.401
	c0-3.567,0.078-4.166,0.078-8.032c5.357,1.135,11.017,3.566,11.017,3.566"/>
<line fill="none" stroke="#D2232A" stroke-width="2" stroke-miterlimit="10" x1="107.879" y1="125.787" x2="107.879" y2="135.326"/>
<line fill="none" stroke="#D2232A" stroke-width="2" stroke-miterlimit="10" x1="125.28" y1="122.441" x2="125.28" y2="131.483"/>
<line fill="none" stroke="#D2232A" stroke-width="2" stroke-miterlimit="10" x1="116.892" y1="133.505" x2="116.892" y2="140.718"/>
<line fill="none" stroke="#D2232A" stroke-width="2" stroke-miterlimit="10" x1="136.212" y1="130.848" x2="136.212" y2="138.582"/>
<line fill="none" stroke="#D2232A" stroke-width="2" stroke-miterlimit="10" x1="145.212" y1="120.583" x2="145.212" y2="129.818"/>
<line fill="none" stroke="#D2232A" stroke-width="2" stroke-miterlimit="10" x1="154.209" y1="130.848" x2="154.209" y2="138.702"/>
<line fill="none" stroke="#D2232A" stroke-width="2" stroke-miterlimit="10" x1="165.271" y1="122.191" x2="165.271" y2="132.279"/>
<line fill="none" stroke="#D2232A" stroke-width="2" stroke-miterlimit="10" x1="173.309" y1="133.15" x2="173.309" y2="141.196"/>
<line fill="none" stroke="#D2232A" stroke-width="2" stroke-miterlimit="10" x1="182.292" y1="125.734" x2="182.292" y2="135.402"/>
<path fill="none" stroke="#D2232A" stroke-width="2" stroke-miterlimit="10" d="M134.669,121.334v-6.873c0,0,9.411-2.683,21.077,0
	c0,2.375,0,6.873,0,6.873"/>
<path fill="#D2232A" stroke="#D2232A" stroke-miterlimit="10" d="M90.917,149.41c0,0,13.109,3.919,21.249,3.919
	c8.146,0,18.533-5.417,32.569-5.417c14.036,0,20.003,5.417,29.173,5.417c9.164,0,25.603-3.746,25.603-3.746v4.406
	c0,0-13.6,3.271-25.198,3.271c-11.6,0-15.593-4.943-29.69-4.943c-14.114,0-21.939,4.943-32.349,4.943
	c-10.408,0-21.356-3.932-21.356-3.932V149.41z"/>
<path fill="#D2232A" stroke="#D2232A" stroke-miterlimit="10" d="M90.917,161.243c0,0,13.109,3.933,21.249,3.933
	c8.146,0,18.533-5.41,32.569-5.41c14.036,0,20.003,5.41,29.173,5.41c9.164,0,25.603-3.746,25.603-3.746v4.397
	c0,0-13.6,3.279-25.198,3.279c-11.6,0-15.593-4.936-29.69-4.936c-14.114,0-21.939,4.936-32.349,4.936
	c-10.408,0-21.356-3.931-21.356-3.931V161.243z"/>
<path fill="#D2232A" stroke="#D2232A" stroke-miterlimit="10" d="M90.917,174.232c0,0,13.109,3.935,21.249,3.935
	c8.146,0,18.533-5.428,32.569-5.428c14.036,0,20.003,5.428,29.173,5.428c9.164,0,25.603-3.754,25.603-3.754l-2.203,4.893
	c0,0-11.397,2.782-22.995,2.782c-11.6,0-15.593-4.943-29.69-4.943c-14.114,0-21.939,4.943-32.349,4.943
	c-10.408,0-20.229-4.167-20.229-4.167L90.917,174.232z"/>
<path fill="#D2232A" stroke="#D2232A" stroke-miterlimit="10" d="M101.752,188.558c3.529,0.712,7.325,1.27,10.413,1.27
	c8.146,0,18.533-5.419,32.569-5.419c14.036,0,20.003,5.419,29.173,5.419c4.483,0,10.715-0.889,15.903-1.812
	c-2.208,2.284-4.772,3.958-6.958,5.258c-2.816,0.294-5.74,0.48-8.54,0.48c-11.6,0-15.593-4.938-29.69-4.938
	c-14.114,0-21.939,4.938-32.349,4.938c-1.401,0-2.816-0.064-4.219-0.186C104.967,192.273,103.18,189.467,101.752,188.558z"/>
<path fill="#D2232A" stroke="#D2232A" stroke-miterlimit="10" d="M119.792,199.158c6.803-1.584,14.946-4.33,24.942-4.33
	c11.555,0,17.64,3.669,24.548,4.97c-1.376,1.263-2.636,1.819-5.485,2.887c-5.344-1.459-10.221-3.45-19.175-3.45
	c-7.731,0-13.578,1.483-18.988,2.822C122.473,200.842,121.933,200.067,119.792,199.158z"/>
<path fill="none" stroke="#D2232A" stroke-width="2" stroke-miterlimit="10" d="M149.054,103.702c0,1.333-1.654,2.422-3.688,2.422
	c-2.027,0-3.683-1.089-3.683-2.422c0-1.339,1.656-2.428,3.683-2.428C147.4,101.274,149.054,102.363,149.054,103.702z"/>
<path fill="none" stroke="#D2232A" stroke-width="2" stroke-miterlimit="10" d="M149.881,108.626c0,1.371-2.017,2.5-4.515,2.5
	c-2.484,0-4.501-1.129-4.501-2.5c0-1.389,2.017-2.502,4.501-2.502C147.864,106.124,149.881,107.238,149.881,108.626z"/>
<path fill="none" stroke="#D2232A" stroke-width="2" stroke-miterlimit="10" d="M143.738,100.7l-0.032,0.691
	C143.738,101.179,143.753,100.936,143.738,100.7z"/>
<path fill="none" stroke="#D2232A" stroke-width="2" stroke-miterlimit="10" d="M146.709,101.391l-0.036-0.691
	C146.666,100.936,146.674,101.179,146.709,101.391z"/>
<path fill="none" stroke="#D2232A" stroke-width="2" stroke-miterlimit="10" d="M150.896,85.292c0,0-1.743-11.428-5.704-11.428
	c-3.965,0-5.702,11.428-5.702,11.428s-13.797-0.451-6.967,13.88c3.893-7.581,10.357-3.937,11.026,2.271c0,0,0.416-0.283,1.662-0.322
	c1.242-0.044,1.83,0.269,1.83,0.269c0.674-6.208,6.934-9.799,10.823-2.218C164.7,84.841,150.896,85.292,150.896,85.292z"/>
<path fill="none" stroke="#D2232A" stroke-width="2" stroke-miterlimit="10" d="M189.118,84.933
	c-0.086-0.084-0.194-0.124-0.289-0.188c0.044-0.071,0.094-0.124,0.13-0.197c0.874-1.942-0.644-4.522-3.398-5.77
	c-2.322-1.059-4.77-0.189-6.015,1.082c-1.232-1.271-3.685-2.141-6.004-1.082c-2.747,1.24-4.259,3.802-3.407,5.738
	c-0.233,0.105-0.458,0.244-0.655,0.416c-1.62,1.368-1.357,4.367,0.61,6.664c1.193,1.415,2.963,2.078,4.359,2.184
	c0.807,1.398,2.486,2.569,4.736,2.64c2.428,0.071,4.409-1.171,5.177-2.676c1.382-0.133,2.974-0.757,4.153-2.147
	C190.475,89.3,190.744,86.3,189.118,84.933z"/>
<path fill="#D2232A" d="M181.602,89.972c0,0-1.393-1.48-2.253-1.48c-0.86,0-2.097,1.48-2.097,1.48s0.865-1.705,0.696-2.453
	c-0.167-0.745-2.117-1.641-2.117-1.641s1.731,0.686,2.611,0.013c0.877-0.677,0.857-2.667,0.857-2.667s0.178,2.149,0.852,2.627
	c0.666,0.483,3.019,0.026,3.019,0.026s-2.25,0.844-2.456,1.587C180.503,88.195,181.602,89.972,181.602,89.972z"/>
<polyline fill="#D2232A" points="178.131,78.862 179.557,73.754 180.986,78.854 178.611,79.333 "/>
<polyline fill="#D2232A" points="189.201,83.494 194.237,82.972 189.842,85.878 188.768,83.875 "/>
<polyline fill="#D2232A" points="169.269,85.302 164.999,82.396 170.237,82.81 169.449,85.239 "/>
<polyline fill="#D2232A" points="185.847,93.76 187.994,97.488 183.699,95 184.967,93.399 "/>
<polyline fill="#D2232A" points="175.021,95.151 171.331,97.488 173.018,93.399 175.021,94.76 "/>
<path fill="none" stroke="#D2232A" stroke-width="2" stroke-miterlimit="10" d="M46.612,41.665
	c5.53,14.23,13.503,10.779,19.044,12.321c5.542,1.548,7.98,11.439,12.208,10.069c1.809-0.791,6.609-2.147,7.025-10.184
	c0.423-8.044-8.157-13.635-9.941-15.422c-1.784-1.78-0.305-11.911-9.047-15.301c4.765-3.327,4.635-12.972,3.388-13.276
	c-1.242-0.3-6.846,10.837-11.604,11.439c-6.373,0.236-43.883,15.948-20.244,83.404c7.322,16.849-30.543,71.618,6.609,100.558
	c22.147,13.218,38.697-9.047,38.76-23.186c0.653-18.021-18.156-34.445-18.156-34.445l-7.377,13.538c0,0,8.024,4.751,8.203,14.752
	c0.067,4.046-2.228,16.529-10.472,8.477c-13.018-12.7,23.863-50.276,24.934-76.434"/>
<path fill="none" stroke="#D2232A" stroke-width="2" stroke-miterlimit="10" d="M50.895,73.399
	c10.716,12.027,29.532,12.76,31.368,21.217c2.382,17.266,8.654,25.46,8.654,25.46"/>
<path fill="none" stroke="#D2232A" stroke-width="2" stroke-miterlimit="10" d="M48.152,92.218
	c9.232,9.642,19.105,3.331,24.709,6.906c7.022,5.71,10.541,14.999,10.241,21.851c-0.3,6.837-4.643,11.202-6.853,12.531
	c-2.203,1.34-2.258,8.08,3.452,4.767c-4.936,4.018,0.604,9.37,3.401,6.809c2.794-2.561,7.814-10.479,7.814-10.479"/>
<path fill="#D2232A" d="M77.684,143.713c0.297,2.623-3.926,5.837-3.926,5.837s8.107-2.637,9.292-3.525
	S79.884,146.096,77.684,143.713z"/>
<path fill="#D2232A" stroke="#D2232A" stroke-miterlimit="10" d="M74.314,136.639c0.24,2.038-3.711,4.079-3.711,4.079l7.677-0.826
	C78.28,139.892,76.035,138.49,74.314,136.639z"/>
<line fill="none" stroke="#D2232A" stroke-width="2" stroke-miterlimit="10" x1="79.249" y1="138.677" x2="84.59" y2="133.886"/>
<path fill="none" stroke="#D2232A" stroke-width="2" stroke-miterlimit="10" d="M51.684,49.913
	c0.994,13.968,19.901,25.925,23.515,37.86"/>
<path fill="none" stroke="#D2232A" stroke-width="2" stroke-miterlimit="10" d="M66.12,73.864
	c27.698-28.39,68.954-16.127,69.792-7.396"/>
<path fill="none" stroke="#D2232A" stroke-width="2" stroke-miterlimit="10" d="M74.367,85.584
	c5.581-12.186,13.729-16.74,13.729-16.74"/>
<path fill="none" stroke="#D2232A" stroke-width="2" stroke-miterlimit="10" d="M93.166,66.468c0,0,8.157-5.094,13.995-5.094
	c5.829,0,10.296,5.094,10.296,5.094"/>
<line fill="none" stroke="#D2232A" stroke-width="2" stroke-miterlimit="10" x1="126.025" y1="66.468" x2="120.371" y2="61.375"/>
<line fill="none" stroke="#D2232A" stroke-width="2" stroke-miterlimit="10" x1="81.632" y1="61.929" x2="78.347" y2="57.565"/>
<path fill="none" stroke="#D2232A" stroke-width="2" stroke-miterlimit="10" d="M64.3,15.908l0.583-11.03
	c0,0-3.657,6.588-10.357,4.989c-5.238,8.043-12.618,5.133-12.618,5.133s-1.995,12.504-11.908,12.262
	c0.775,11.424-9.045,14.762-9.045,14.762s7.318,8.698-1.075,16.906c4.079,9.792-0.714,16.715-0.714,16.715s8.004,5.174,3.327,15.916
	c7.599,6.421,4.406,14.564,4.406,14.564l9.436-4.681"/>
<line fill="none" stroke="#D2232A" stroke-width="2" stroke-miterlimit="10" x1="22.491" y1="91.56" x2="32.767" y2="88.979"/>
<line fill="none" stroke="#D2232A" stroke-width="2" stroke-miterlimit="10" x1="19.165" y1="75.644" x2="30.296" y2="75.126"/>
<line fill="none" stroke="#D2232A" stroke-width="2" stroke-miterlimit="10" x1="19.879" y1="58.929" x2="30.296" y2="59.736"/>
<line fill="none" stroke="#D2232A" stroke-width="2" stroke-miterlimit="10" x1="20.954" y1="42.022" x2="32.94" y2="45.083"/>
<line fill="none" stroke="#D2232A" stroke-width="2" stroke-miterlimit="10" x1="30.296" y1="27.653" x2="38.153" y2="33.627"/>
<line fill="none" stroke="#D2232A" stroke-width="2" stroke-miterlimit="10" x1="41.821" y1="15.445" x2="48.904" y2="24.706"/>
<line fill="none" stroke="#D2232A" stroke-width="2" stroke-miterlimit="10" x1="54.525" y1="9.866" x2="56.64" y2="20.772"/>
<path fill="none" stroke="#D2232A" stroke-width="2" stroke-miterlimit="10" d="M32.963,136.287c0,0-11.424-6.117-14.723-19.25
	c-1.34,9.74-10.716,7.416-10.716,7.416s7.5,10.914-4.91,16.264c10.887,6.419,4.015,18.11,4.015,18.11s8.128,0.627,8.036,10.279
	c4.562-10.179,14.065-14.122,14.065-14.122l45.027-50.004l5.798,6.772"/>
<line fill="none" stroke="#D2232A" stroke-width="2" stroke-miterlimit="10" x1="8.272" y1="124.588" x2="25.917" y2="139.368"/>
<line fill="none" stroke="#D2232A" stroke-width="2" stroke-miterlimit="10" x1="3.242" y1="140.718" x2="22.885" y2="143.713"/>
<line fill="none" stroke="#D2232A" stroke-width="2" stroke-miterlimit="10" x1="6.629" y1="158.828" x2="23.42" y2="151.06"/>
<line fill="none" stroke="#D2232A" stroke-width="2" stroke-miterlimit="10" x1="38.023" y1="106.487" x2="68.104" y2="141.422"/>
<path fill="none" stroke="#D2232A" stroke-width="2" stroke-miterlimit="10" d="M27.514,166.239"/>
<path fill="none" stroke="#D2232A" stroke-width="2" stroke-miterlimit="10" d="M75.04,104.271"/>
<polyline fill="none" stroke="#D2232A" stroke-width="2" stroke-miterlimit="10" points="35.329,127.45 57.261,104.271 
	75.435,125.334 "/>
<line fill="none" stroke="#D2232A" stroke-width="2" stroke-miterlimit="10" x1="36.273" y1="125.787" x2="60.843" y2="153.745"/>
<line fill="none" stroke="#D2232A" stroke-width="2" stroke-miterlimit="10" x1="31.215" y1="143.094" x2="55.378" y2="164.906"/>
<line fill="none" stroke="#D2232A" stroke-width="2" stroke-miterlimit="10" x1="28.526" y1="156.242" x2="52.272" y2="175.975"/>
<line fill="none" stroke="#D2232A" stroke-width="2" stroke-miterlimit="10" x1="27.514" y1="171.607" x2="70.909" y2="204.56"/>
<line fill="none" stroke="#D2232A" stroke-width="2" stroke-miterlimit="10" x1="30.809" y1="188.085" x2="58.163" y2="209.291"/>
<line fill="none" stroke="#D2232A" stroke-width="2" stroke-miterlimit="10" x1="63.955" y1="183.571" x2="79.166" y2="194.829"/>
<line fill="none" stroke="#D2232A" stroke-width="2" stroke-miterlimit="10" x1="63.888" y1="169.107" x2="82.803" y2="183.305"/>
<line fill="none" stroke="#D2232A" stroke-width="2" stroke-miterlimit="10" x1="61.956" y1="152.594" x2="79.557" y2="167.521"/>
<line fill="none" stroke="#D2232A" stroke-width="2" stroke-miterlimit="10" x1="75.435" y1="124.588" x2="27.514" y2="171.607"/>
<line fill="none" stroke="#D2232A" stroke-width="2" stroke-miterlimit="10" x1="56.528" y1="162.322" x2="29.882" y2="186.518"/>
<line fill="none" stroke="#D2232A" stroke-width="2" stroke-miterlimit="10" x1="52.902" y1="181.188" x2="36.273" y2="198.759"/>
<line fill="none" stroke="#D2232A" stroke-width="2" stroke-miterlimit="10" x1="45.372" y1="206.433" x2="80.361" y2="169.387"/>
<line fill="none" stroke="#D2232A" stroke-width="2" stroke-miterlimit="10" x1="62.71" y1="166.469" x2="72.878" y2="156.91"/>
<line fill="none" stroke="#D2232A" stroke-width="2" stroke-miterlimit="10" x1="58.163" y1="208.933" x2="82.803" y2="183.305"/>
<path fill="none" stroke="#D2232A" stroke-width="2" stroke-miterlimit="10" d="M244.025,41.429
	c-5.541,14.229-13.515,10.771-19.055,12.321c-5.535,1.542-7.982,11.428-12.2,10.061c-1.812-0.79-6.608-2.146-7.033-10.183
	c-0.408-8.038,8.16-13.631,9.947-15.422c1.781-1.788,0.299-11.907,9.05-15.294c-4.764-3.342-4.642-12.976-3.396-13.276
	c1.249-0.3,6.853,10.829,11.611,11.432c6.373,0.232,43.881,15.954,20.24,83.411c-7.325,16.841,30.547,71.612-6.606,100.547
	c-22.143,13.217-38.699-9.052-38.751-23.18c-0.663-18.019,18.153-34.452,18.153-34.452l7.367,13.549c0,0-8.024,4.744-8.202,14.748
	c-0.058,4.048,2.233,16.518,10.479,8.482c13.023-12.716-23.863-50.288-24.938-76.443"/>
<path fill="none" stroke="#D2232A" stroke-width="2" stroke-miterlimit="10" d="M239.738,73.152
	c-10.715,12.033-29.523,12.769-31.374,21.22c-2.377,17.266-8.648,25.464-8.648,25.464"/>
<path fill="none" stroke="#D2232A" stroke-width="2" stroke-miterlimit="10" d="M242.482,91.969
	c-9.23,9.644-19.113,3.337-24.709,6.911c-7.028,5.714-10.535,15.006-10.235,21.844c0.294,6.853,4.636,11.203,6.839,12.535
	c2.203,1.343,2.259,8.08-3.451,4.77c4.936,4.008-0.594,9.37-3.388,6.814c-2.805-2.559-7.821-10.483-7.821-10.483"/>
<path fill="#D2232A" d="M212.951,143.467c-0.305,2.626,3.931,5.833,3.931,5.833s-7.916-2.314-9.358-3.579
	C206.081,144.457,210.745,145.849,212.951,143.467z"/>
<path fill="#D2232A" d="M216.313,136.388c-0.227,2.045,3.729,4.083,3.729,4.083l-7.688-0.821
	C212.354,139.649,214.602,138.247,216.313,136.388z"/>
<line fill="none" stroke="#D2232A" stroke-width="2" stroke-miterlimit="10" x1="211.389" y1="138.433" x2="206.048" y2="133.643"/>
<path fill="none" stroke="#D2232A" stroke-width="2" stroke-miterlimit="10" d="M238.942,49.676
	c-0.982,13.956-19.888,25.919-23.5,37.854"/>
<path fill="none" stroke="#D2232A" stroke-width="2" stroke-miterlimit="10" d="M224.515,73.621
	c-27.695-28.39-68.957-16.127-69.787-7.392"/>
<path fill="none" stroke="#D2232A" stroke-width="2" stroke-miterlimit="10" d="M216.266,85.335
	c-5.58-12.183-13.736-16.73-13.736-16.73"/>
<path fill="none" stroke="#D2232A" stroke-width="2" stroke-miterlimit="10" d="M198.188,66.229c0,0-8.875-5.105-14.708-5.105
	c-5.829,0-10.299,5.105-10.299,5.105"/>
<line fill="none" stroke="#D2232A" stroke-width="2" stroke-miterlimit="10" x1="164.603" y1="66.229" x2="170.262" y2="61.125"/>
<line fill="none" stroke="#D2232A" stroke-width="2" stroke-miterlimit="10" x1="209.005" y1="61.682" x2="212.293" y2="57.321"/>
<path fill="none" stroke="#D2232A" stroke-width="2" stroke-miterlimit="10" d="M226.334,15.661l-0.591-11.026
	c0,0,3.668,6.595,10.357,4.996c5.238,8.032,12.629,5.122,12.629,5.122s1.992,12.509,11.897,12.273
	c-0.769,11.424,9.059,14.762,9.059,14.762s-7.328,8.689,1.077,16.899c-4.087,9.799,0.71,16.715,0.71,16.715
	s-8.013,5.167-3.337,15.907c-7.588,6.437-4.406,14.566-4.406,14.566l-9.425-4.671"/>
<line fill="none" stroke="#D2232A" stroke-width="2" stroke-miterlimit="10" x1="268.135" y1="91.308" x2="257.864" y2="88.736"/>
<line fill="none" stroke="#D2232A" stroke-width="2" stroke-miterlimit="10" x1="271.473" y1="75.401" x2="260.344" y2="74.875"/>
<line fill="none" stroke="#D2232A" stroke-width="2" stroke-miterlimit="10" x1="270.763" y1="58.686" x2="260.344" y2="59.5"/>
<line fill="none" stroke="#D2232A" stroke-width="2" stroke-miterlimit="10" x1="269.686" y1="41.787" x2="257.695" y2="44.833"/>
<line fill="none" stroke="#D2232A" stroke-width="2" stroke-miterlimit="10" x1="260.344" y1="27.402" x2="252.484" y2="33.391"/>
<line fill="none" stroke="#D2232A" stroke-width="2" stroke-miterlimit="10" x1="248.819" y1="15.21" x2="241.722" y2="24.454"/>
<line fill="none" stroke="#D2232A" stroke-width="2" stroke-miterlimit="10" x1="236.101" y1="9.63" x2="233.992" y2="20.528"/>
<path fill="none" stroke="#D2232A" stroke-width="2" stroke-miterlimit="10" d="M257.678,136.036c0,0,11.409-6.115,14.716-19.245
	c1.34,9.736,10.718,7.412,10.718,7.412s-7.502,10.911,4.908,16.268c-10.893,6.422-4.023,18.122-4.023,18.122
	s-8.118,0.627-8.035,10.279c-4.547-10.195-14.053-14.132-14.053-14.132l-45.027-50l-5.807,6.77"/>
<line fill="none" stroke="#D2232A" stroke-width="2" stroke-miterlimit="10" x1="282.365" y1="124.337" x2="264.708" y2="139.124"/>
<line fill="none" stroke="#D2232A" stroke-width="2" stroke-miterlimit="10" x1="287.398" y1="140.471" x2="267.752" y2="143.467"/>
<line fill="none" stroke="#D2232A" stroke-width="2" stroke-miterlimit="10" x1="283.997" y1="158.592" x2="267.211" y2="150.824"/>
<line fill="none" stroke="#D2232A" stroke-width="2" stroke-miterlimit="10" x1="252.617" y1="106.251" x2="222.755" y2="140.917"/>
<path fill="none" stroke="#D2232A" stroke-width="2" stroke-miterlimit="10" d="M263.122,166.001"/>
<path fill="none" stroke="#D2232A" stroke-width="2" stroke-miterlimit="10" d="M215.6,104.029"/>
<polyline fill="none" stroke="#D2232A" stroke-width="2" stroke-miterlimit="10" points="255.309,127.208 233.365,104.029 
	215.192,125.099 "/>
<line fill="none" stroke="#D2232A" stroke-width="2" stroke-miterlimit="10" x1="254.354" y1="125.54" x2="229.792" y2="153.496"/>
<line fill="none" stroke="#D2232A" stroke-width="2" stroke-miterlimit="10" x1="259.426" y1="142.85" x2="235.249" y2="164.666"/>
<line fill="none" stroke="#D2232A" stroke-width="2" stroke-miterlimit="10" x1="262.109" y1="155.998" x2="238.368" y2="175.73"/>
<line fill="none" stroke="#D2232A" stroke-width="2" stroke-miterlimit="10" x1="263.122" y1="171.363" x2="219.731" y2="204.324"/>
<line fill="none" stroke="#D2232A" stroke-width="2" stroke-miterlimit="10" x1="259.823" y1="187.842" x2="232.469" y2="209.052"/>
<line fill="none" stroke="#D2232A" stroke-width="2" stroke-miterlimit="10" x1="226.687" y1="183.32" x2="211.475" y2="194.586"/>
<line fill="none" stroke="#D2232A" stroke-width="2" stroke-miterlimit="10" x1="226.928" y1="168.248" x2="207.832" y2="183.059"/>
<line fill="none" stroke="#D2232A" stroke-width="2" stroke-miterlimit="10" x1="228.671" y1="152.343" x2="211.075" y2="167.278"/>
<line fill="none" stroke="#D2232A" stroke-width="2" stroke-miterlimit="10" x1="215.192" y1="124.337" x2="263.122" y2="171.363"/>
<line fill="none" stroke="#D2232A" stroke-width="2" stroke-miterlimit="10" x1="234.902" y1="163.837" x2="260.75" y2="186.282"/>
<line fill="none" stroke="#D2232A" stroke-width="2" stroke-miterlimit="10" x1="237.574" y1="181.847" x2="254.354" y2="198.512"/>
<line fill="none" stroke="#D2232A" stroke-width="2" stroke-miterlimit="10" x1="244.466" y1="206.197" x2="211.075" y2="167.278"/>
<line fill="none" stroke="#D2232A" stroke-width="2" stroke-miterlimit="10" x1="228.671" y1="165.391" x2="219.08" y2="155.11"/>
<line fill="none" stroke="#D2232A" stroke-width="2" stroke-miterlimit="10" x1="230.914" y1="209.064" x2="207.832" y2="181.847"/>
<path fill="#D2232A" d="M57.66,34c0,0,8.782-4.747,10.232-2.956c1.439,1.798,0.173,5.681-1.331,5.905
	c-1.506,0.225-1.273-0.752-2.834-2.083C62.168,33.54,57.66,34,57.66,34z"/>
<path fill="none" stroke="#D2232A" stroke-width="2" stroke-miterlimit="10" d="M121.325,84.805
	c-0.086-0.084-0.194-0.123-0.29-0.187c0.046-0.071,0.096-0.124,0.13-0.197c0.874-1.942-0.642-4.522-3.397-5.77
	c-2.324-1.058-4.77-0.188-6.015,1.082c-1.232-1.271-3.686-2.14-6.005-1.082c-2.746,1.24-4.258,3.803-3.406,5.738
	c-0.233,0.105-0.458,0.244-0.655,0.416c-1.622,1.368-1.357,4.367,0.61,6.665c1.193,1.415,2.963,2.078,4.359,2.184
	c0.807,1.398,2.486,2.569,4.734,2.64c2.429,0.071,4.41-1.17,5.179-2.676c1.382-0.133,2.974-0.757,4.152-2.147
	C122.682,89.172,122.95,86.173,121.325,84.805z"/>
<path fill="#D2232A" d="M113.808,89.845c0,0-1.391-1.48-2.251-1.48c-0.86,0-2.099,1.48-2.099,1.48s0.866-1.705,0.696-2.453
	c-0.165-0.745-2.117-1.641-2.117-1.641s1.732,0.686,2.61,0.013c0.878-0.677,0.859-2.667,0.859-2.667s0.178,2.149,0.851,2.627
	c0.667,0.483,3.019,0.026,3.019,0.026s-2.25,0.843-2.454,1.587C112.71,88.068,113.808,89.845,113.808,89.845z"/>
<polyline fill="#D2232A" points="110.337,78.734 111.763,73.626 113.192,78.726 110.817,79.206 "/>
<polyline fill="#D2232A" points="121.409,83.366 126.444,82.845 122.049,85.751 120.976,83.748 "/>
<polyline fill="#D2232A" points="101.477,85.174 97.205,82.268 102.443,82.683 101.656,85.111 "/>
<polyline fill="#D2232A" points="118.054,93.632 120.2,97.361 115.907,94.872 117.175,93.271 "/>
<polyline fill="#D2232A" points="107.228,95.023 103.538,97.361 105.225,93.271 107.228,94.632 "/>
<path fill="#D2232A" d="M233.119,33.815c0,0-8.782-4.747-10.232-2.956c-1.439,1.798-0.173,5.681,1.331,5.905
	c1.506,0.225,1.273-0.752,2.834-2.083C228.61,33.355,233.119,33.815,233.119,33.815z"/>
<path fill="none" stroke="#D2232A" stroke-width="2" stroke-linejoin="round" stroke-miterlimit="10" d="M199.511,76.828
	c0-8.752,6.612-10.36,6.612-10.36h-48.589"/>
</svg>
